<svg width="112" height="36" viewBox="0 0 112 36" fill="none" xmlns="http://www.w3.org/2000/svg">
<g clip-path="url(#clip0_10_1497)">
<path d="M104.11 14.6633C106.49 14.6633 108.337 15.2056 109.65 16.29C110.963 17.3744 111.621 18.9744 111.623 21.09C111.623 23.3744 110.904 25.0967 109.467 26.2567C108.029 27.4167 106.034 27.9978 103.483 28H95.2V8.01H99.31V14.6633H104.11ZM103.227 24.8867C104.556 24.8867 105.588 24.5678 106.323 23.93C107.059 23.2922 107.426 22.3733 107.423 21.1733C107.423 19.9933 107.057 19.1422 106.323 18.62C105.59 18.0978 104.558 17.8356 103.227 17.8333H99.31V24.8867H103.227Z" fill="#505050"/>
<path d="M70.0867 32L70.1133 24.5433H92.56V32H88.7067V28H74L73.97 32H70.0867ZM85.5633 26.1167V11.4667H78.2533L78.14 14.6933C78.0833 15.9667 78 17.1833 77.8967 18.3333C77.7933 19.4833 77.6333 20.5267 77.4267 21.46C77.22 22.3933 76.93 23.18 76.57 23.8167C76.21 24.4533 75.76 24.9067 75.2267 25.1733L70.77 24.5433C71.4767 24.5633 72.06 24.3167 72.5267 23.8033C72.9933 23.29 73.3567 22.5733 73.6133 21.66C73.87 20.7467 74.0633 19.66 74.1967 18.4033C74.33 17.1467 74.4267 15.7867 74.4833 14.32L74.6833 8.01H89.7033V26.1167H85.5633Z" fill="#505050"/>
<path d="M56.1933 8.00666H52.0333L44.7567 28H48.9133L56.1933 8.00666Z" fill="#CF3476"/>
<path d="M64.1433 8.00666H59.9866L52.71 28H56.8666L64.1433 8.00666Z" fill="#CF3476"/>
<path d="M72.0966 8.00666H67.94L60.66 28H64.82L72.0966 8.00666Z" fill="#CF3476"/>
<path d="M33.9667 28.2867C32.4067 28.2867 30.9644 28.0344 29.64 27.53C28.3155 27.0256 27.1644 26.3067 26.1867 25.3733C25.212 24.4484 24.4342 23.3362 23.9 22.1033C23.36 20.8567 23.0889 19.49 23.0867 18.0033C23.0844 16.5167 23.3555 15.1511 23.9 13.9067C24.4342 12.6738 25.212 11.5616 26.1867 10.6367C27.1667 9.70333 28.3178 8.98444 29.64 8.48C30.9622 7.97555 32.4044 7.72333 33.9667 7.72333C35.5311 7.72333 36.9689 7.97555 38.28 8.48C39.5911 8.98444 40.7378 9.69889 41.72 10.6233C42.6966 11.5377 43.47 12.6473 43.99 13.88C44.5233 15.1267 44.79 16.5011 44.79 18.0033C44.79 19.5056 44.5233 20.8767 43.99 22.1167C43.4728 23.3548 42.6992 24.4693 41.72 25.3867C40.74 26.3089 39.5933 27.0233 38.28 27.53C36.9667 28.0367 35.5289 28.2889 33.9667 28.2867ZM33.94 24.7167C34.8911 24.7167 35.7711 24.5544 36.58 24.23C37.3712 23.9175 38.0904 23.4468 38.6933 22.8467C39.2988 22.2383 39.775 21.5138 40.0933 20.7167C40.4267 19.9 40.5933 18.9933 40.5933 18.0033C40.5933 17.0133 40.4267 16.1167 40.0933 15.3067C39.7709 14.5127 39.2951 13.79 38.6933 13.18C38.0984 12.5738 37.3846 12.0971 36.5967 11.78C35.7967 11.4578 34.92 11.2956 33.9667 11.2933C33.0167 11.2933 32.13 11.4567 31.3133 11.78C30.5123 12.0908 29.7864 12.568 29.1833 13.18C28.5814 13.7893 28.1066 14.5122 27.7867 15.3067C27.4533 16.1156 27.2867 17.0056 27.2867 17.9767C27.2867 18.9478 27.4533 19.8522 27.7867 20.69C28.1048 21.4893 28.5797 22.217 29.1833 22.83C29.7826 23.4387 30.5024 23.9156 31.2967 24.23C32.1078 24.5544 32.9889 24.7167 33.94 24.7167Z" fill="#505050"/>
<path d="M0 32L0.03 24.5433H22.4733V32H18.62V28H3.91333L3.88333 32H0ZM15.4767 26.1167V11.4667H8.16667L8.05333 14.6933C7.99667 15.9667 7.91333 17.1833 7.81 18.3333C7.70667 19.4833 7.55 20.5267 7.34 21.46C7.13 22.3933 6.84333 23.18 6.48333 23.8167C6.12333 24.4533 5.67333 24.9067 5.14 25.1733L0.686667 24.5433C1.39 24.5633 1.97333 24.3167 2.44333 23.8033C2.91333 23.29 3.27 22.5733 3.52667 21.66C3.78333 20.7467 3.98 19.66 4.11333 18.4033C4.24667 17.1467 4.34 15.7867 4.39667 14.32L4.59667 8.01H19.62V26.1167H15.4767Z" fill="#505050"/>
</g>
<defs>
<clipPath id="clip0_10_1497">
<rect width="111.633" height="36" fill="white"/>
</clipPath>
</defs>
</svg>
