<svg width="338" height="109" viewBox="0 0 338 109" fill="none" xmlns="http://www.w3.org/2000/svg">
<path d="M315.221 44.3972C322.427 44.3972 328.018 46.0389 331.995 49.3224C335.971 52.6058 337.963 57.4503 337.97 63.8557C337.97 70.7724 335.793 75.9869 331.44 79.4991C327.087 83.0114 321.048 84.7708 313.324 84.7776H288.244V24.2524H300.688V44.3972H315.221ZM312.547 75.3511C316.57 75.3511 319.695 74.3856 321.923 72.4545C324.15 70.5235 325.26 67.7413 325.253 64.108C325.253 60.5352 324.143 57.9582 321.923 56.3771C319.702 54.7959 316.577 54.002 312.547 53.9952H300.688V75.3511H312.547Z" fill="#505050"/>
<path d="M212.206 96.8886L212.287 74.3116H280.25V96.8886H268.583V84.7776H224.055L223.964 96.8886H212.206ZM259.066 79.0753V34.7184H236.933L236.59 44.488C236.418 48.3434 236.166 52.0272 235.853 55.5091C235.54 58.9911 235.056 62.15 234.43 64.9759C233.804 67.8019 232.926 70.1837 231.836 72.1114C230.746 74.0391 229.384 75.4117 227.769 76.2191L214.275 74.3116C216.415 74.3721 218.181 73.6253 219.594 72.071C221.007 70.5168 222.107 68.3469 222.884 65.5815C223.661 62.8161 224.247 59.526 224.65 55.7211C225.054 51.9162 225.347 47.7984 225.518 43.3577L226.124 24.2524H271.601V79.0753H259.066Z" fill="#505050"/>
<path d="M170.14 24.2423H157.545L135.513 84.7775H148.098L170.14 24.2423Z" fill="#CF3476"/>
<path d="M194.211 24.2423H181.626L159.594 84.7775H172.179L194.211 24.2423Z" fill="#CF3476"/>
<path d="M218.292 24.2423H205.707L183.664 84.7775H196.26L218.292 24.2423Z" fill="#CF3476"/>
<path d="M102.843 85.6455C98.1199 85.6455 93.7532 84.8819 89.7431 83.3545C85.733 81.8272 82.2477 79.6506 79.2872 76.8246C76.3362 74.0243 73.9813 70.6567 72.3637 66.9238C70.7287 63.1492 69.9078 59.0113 69.9011 54.51C69.8944 50.0087 70.7152 45.8741 72.3637 42.1062C73.9813 38.3734 76.3362 35.0058 79.2872 32.2054C82.2544 29.3795 85.7397 27.2029 89.7431 25.6755C93.7465 24.1482 98.1132 23.3845 102.843 23.3845C107.58 23.3845 111.933 24.1482 115.903 25.6755C119.873 27.2029 123.345 29.366 126.319 32.1651C129.276 34.9336 131.617 38.2931 133.192 42.0255C134.806 45.8001 135.614 49.9616 135.614 54.51C135.614 59.0584 134.806 63.2098 133.192 66.9642C131.626 70.713 129.283 74.0874 126.319 76.865C123.351 79.6573 119.879 81.8205 115.903 83.3545C111.927 84.8886 107.573 85.6523 102.843 85.6455ZM102.762 74.8364C105.642 74.8364 108.307 74.3452 110.756 73.3629C113.152 72.4168 115.329 70.9916 117.155 69.1745C118.988 67.3325 120.43 65.1388 121.393 62.7253C122.403 60.2527 122.907 57.5075 122.907 54.51C122.907 51.5125 122.403 48.7976 121.393 46.3451C120.417 43.9412 118.977 41.7531 117.155 39.906C115.353 38.0705 113.192 36.6274 110.806 35.6672C108.384 34.6916 105.73 34.2004 102.843 34.1937C99.9669 34.1937 97.2822 34.6882 94.8096 35.6672C92.3843 36.6083 90.1863 38.0531 88.3604 39.906C86.5379 41.7508 85.1004 43.9396 84.1316 46.3451C83.1224 48.7942 82.6177 51.4889 82.6177 54.4292C82.6177 57.3695 83.1224 60.108 84.1316 62.6446C85.095 65.0648 86.5328 67.2679 88.3604 69.124C90.1748 70.9672 92.3543 72.4109 94.7591 73.3629C97.215 74.3452 99.8827 74.8364 102.762 74.8364Z" fill="#505050"/>
<path d="M0 96.8886L0.0908332 74.3116H68.0441V96.8886H56.3771V84.7776H11.8487L11.7578 96.8886H0ZM46.8598 79.0753V34.7184H24.7268L24.3836 44.488C24.2121 48.3434 23.9597 52.0272 23.6469 55.5091C23.334 58.9911 22.8597 62.15 22.2238 64.9759C21.588 67.8019 20.72 70.1837 19.63 72.1114C18.54 74.0391 17.1775 75.4117 15.5627 76.2191L2.07907 74.3116C4.2086 74.3721 5.9748 73.6253 7.39785 72.071C8.8209 70.5168 9.90081 68.3469 10.6779 65.5815C11.4551 62.8161 12.0505 59.526 12.4542 55.7211C12.8579 51.9162 13.1405 47.7984 13.3121 43.3577L13.9176 24.2524H59.4048V79.0753H46.8598Z" fill="#505050"/>
</svg>
