<svg width="17" height="14" viewBox="0 0 17 14" fill="none" xmlns="http://www.w3.org/2000/svg">
<path d="M16.51 2.63499C16.32 1.93499 15.77 1.38499 15.08 1.20499C13.81 0.86499 8.74 0.86499 8.74 0.86499C8.74 0.86499 3.67 0.86499 2.4 1.20499C1.7 1.39499 1.15 1.94499 0.970005 2.63499C0.630005 3.90499 0.630005 7.35499 0.630005 7.35499C0.630005 7.35499 0.630005 10.805 0.970005 12.075C1.16 12.775 1.71 13.325 2.4 13.505C3.67 13.845 8.74 13.845 8.74 13.845C8.74 13.845 13.81 13.845 15.08 13.505C15.78 13.315 16.33 12.765 16.51 12.075C16.85 10.805 16.85 7.35499 16.85 7.35499C16.85 7.35499 16.85 3.90499 16.51 2.63499ZM7.12 10.165V4.54499L11.99 7.35499L7.12 10.165Z" fill="#505050"/>
</svg>
