<svg width="16" height="15" viewBox="0 0 16 15" fill="none" xmlns="http://www.w3.org/2000/svg">
<path d="M7.93998 0.265015C11.86 0.265015 15.03 3.44501 15.03 7.35501C15.03 11.265 11.85 14.445 7.93998 14.445C4.02998 14.445 0.849976 11.275 0.849976 7.35501C0.849976 3.43501 4.02998 0.265015 7.93998 0.265015ZM10.39 10.245C10.52 9.84501 11.13 5.85501 11.21 5.06501C11.23 4.82502 11.16 4.66501 11.01 4.59501C10.83 4.50501 10.57 4.55501 10.26 4.66501C9.83998 4.81501 4.46998 7.09501 4.15998 7.22501C3.86998 7.34501 3.58998 7.48501 3.58998 7.68501C3.58998 7.82501 3.66998 7.90501 3.89998 7.98501C4.13998 8.06501 4.72998 8.24501 5.07998 8.34501C5.41998 8.43501 5.79998 8.35501 6.01998 8.22501C6.24998 8.08501 8.88998 6.31501 9.07998 6.16501C9.26997 6.01501 9.41998 6.20501 9.26998 6.36501C9.11998 6.51501 7.29998 8.27501 7.05998 8.52501C6.76998 8.82502 6.97998 9.12501 7.16998 9.25501C7.38998 9.39501 8.98998 10.465 9.22998 10.635C9.46998 10.805 9.71998 10.885 9.93998 10.885C10.16 10.885 10.28 10.595 10.39 10.245Z" fill="#505050"/>
</svg>
