<svg width="13" height="14" viewBox="0 0 13 14" fill="none" xmlns="http://www.w3.org/2000/svg">
<path d="M3.63003 0.869995C1.64003 0.869995 0.0300293 2.48 0.0300293 4.47V10.24C0.0300293 12.23 1.64003 13.84 3.63003 13.84H9.40003C11.39 13.84 13 12.23 13 10.24V4.47C13 2.48 11.39 0.869995 9.40003 0.869995H3.63003ZM10.84 2.31C11.24 2.31 11.56 2.63 11.56 3.03C11.56 3.43 11.24 3.75 10.84 3.75C10.44 3.75 10.12 3.43 10.12 3.03C10.12 2.63 10.44 2.31 10.84 2.31ZM6.52003 3.75C8.51003 3.75 10.12 5.35999 10.12 7.35C10.12 9.34 8.51003 10.95 6.52003 10.95C4.53003 10.95 2.92003 9.34 2.92003 7.35C2.92003 5.35999 4.53003 3.75 6.52003 3.75ZM6.52003 5.2C5.33003 5.2 4.36003 6.16999 4.36003 7.35999C4.36003 8.54999 5.33003 9.51999 6.52003 9.51999C7.71003 9.51999 8.68003 8.54999 8.68003 7.35999C8.68003 6.16999 7.71003 5.2 6.52003 5.2Z" fill="#505050"/>
</svg>
